<svg width="188" height="66" viewBox="0 0 188 66" fill="none" xmlns="http://www.w3.org/2000/svg">
<rect x="0.5" y="0.5" width="187" height="65" rx="10.5" fill="white" stroke="#E8E8E8"/>
<path d="M65.7318 42.1523L67.1345 41.8017V26.8395L65.7318 26.4888V26.1381H72.0439C74.4129 26.1381 76.1507 26.52 77.2573 27.2837C78.3795 28.0318 78.9405 29.0137 78.9405 30.2293C78.9405 31.071 78.699 31.7489 78.2158 32.2633C77.7327 32.7776 77.117 33.1594 76.3689 33.4088C75.5741 33.6894 74.7168 33.8374 73.7973 33.853V33.9699C74.935 34.0167 75.9247 34.1881 76.7664 34.4842C77.6236 34.7648 78.3327 35.2012 78.8938 35.7934C79.4705 36.3857 79.7588 37.1416 79.7588 38.0611C79.7588 39.4482 79.1899 40.5392 78.0522 41.3341C76.9144 42.1134 75.0675 42.503 72.5115 42.503H65.7318V42.1523ZM72.0439 33.6192C72.5582 33.6192 73.0336 33.4789 73.47 33.1984C73.922 32.9023 74.2805 32.4971 74.5454 31.9827C74.8259 31.4528 74.9662 30.8684 74.9662 30.2293C74.9662 29.5436 74.8259 28.9357 74.5454 28.4058C74.2805 27.8759 73.922 27.4629 73.47 27.1668C73.0336 26.8706 72.5582 26.7226 72.0439 26.7226H70.9919V33.6192H72.0439ZM72.5115 41.9186C73.4778 41.9186 74.2649 41.5757 74.8727 40.8899C75.4805 40.2041 75.7845 39.2612 75.7845 38.0611C75.7845 36.861 75.4805 35.9181 74.8727 35.2323C74.2649 34.5466 73.4778 34.2037 72.5115 34.2037H70.9919V41.9186H72.5115Z" fill="black"/>
<path d="M80.219 42.1523L81.6218 41.8017V26.8395L80.219 26.4888V26.1381H83.2582C84.6609 26.1381 85.3623 26.8395 85.3623 28.2422V41.8017L86.765 42.1523V42.503H80.219V42.1523Z" fill="black"/>
<path d="M93.1904 42.8537C91.2578 42.8537 89.7382 42.3082 88.6316 41.2172C87.5406 40.1106 86.9951 38.591 86.9951 36.6584C86.9951 34.7258 87.5406 33.214 88.6316 32.123C89.7382 31.0164 91.2578 30.4631 93.1904 30.4631C95.123 30.4631 96.6348 31.0164 97.7258 32.123C98.8324 33.214 99.3857 34.7258 99.3857 36.6584C99.3857 38.591 98.8324 40.1106 97.7258 41.2172C96.6348 42.3082 95.123 42.8537 93.1904 42.8537ZM93.1904 42.3861C93.8138 42.3861 94.3359 41.9497 94.7568 41.0769C95.1932 40.2041 95.4114 38.7313 95.4114 36.6584C95.4114 34.5855 95.1932 33.1127 94.7568 32.2399C94.3359 31.3671 93.8138 30.9307 93.1904 30.9307C92.567 30.9307 92.0371 31.3671 91.6007 32.2399C91.1799 33.1127 90.9695 34.5855 90.9695 36.6584C90.9695 38.7313 91.1799 40.2041 91.6007 41.0769C92.0371 41.9497 92.567 42.3861 93.1904 42.3861Z" fill="black"/>
<path d="M105.589 42.8537C104.623 42.8537 103.758 42.6433 102.994 42.2225C102.62 42.0199 102.316 41.8017 102.082 41.5679C101.833 41.9108 101.56 42.1757 101.264 42.3627C101.124 42.4563 100.968 42.542 100.797 42.6199H100.212V38.6456H101.147C101.35 39.3002 101.646 39.908 102.036 40.4691C102.862 41.6692 103.89 42.2692 105.122 42.2692C105.776 42.2692 106.267 42.1134 106.594 41.8017C106.937 41.4744 107.109 41.0068 107.109 40.399C107.109 39.8846 106.875 39.456 106.407 39.1131C105.955 38.7547 105.239 38.3183 104.257 37.804C103.415 37.3831 102.729 37.0091 102.199 36.6818C101.685 36.3389 101.241 35.9181 100.867 35.4194C100.508 34.905 100.329 34.305 100.329 33.6192C100.329 32.6841 100.726 31.9282 101.521 31.3515C102.332 30.7593 103.571 30.4631 105.239 30.4631C106.065 30.4631 106.828 30.6813 107.53 31.1177C107.872 31.3203 108.169 31.5307 108.418 31.7489C108.621 31.4684 108.893 31.2034 109.236 30.9541C109.501 30.7982 109.657 30.7125 109.704 30.6969H110.288V34.6712H109.353C109.119 34.0011 108.831 33.401 108.488 32.8711C107.709 31.6554 106.781 31.0476 105.706 31.0476C105.285 31.0476 104.927 31.2034 104.631 31.5152C104.335 31.8269 104.186 32.2165 104.186 32.6841C104.186 33.2763 104.436 33.7751 104.935 34.1803C105.433 34.5699 106.189 35.0219 107.202 35.5362C108.028 35.9571 108.683 36.3311 109.166 36.6584C109.665 36.9701 110.086 37.3598 110.429 37.8273C110.787 38.2949 110.966 38.8404 110.966 39.4638C110.966 41.7237 109.174 42.8537 105.589 42.8537Z" fill="black"/>
<path d="M117.046 42.8537C116.079 42.8537 115.214 42.6433 114.451 42.2225C114.076 42.0199 113.773 41.8017 113.539 41.5679C113.289 41.9108 113.017 42.1757 112.72 42.3627C112.58 42.4563 112.424 42.542 112.253 42.6199H111.668V38.6456H112.604C112.806 39.3002 113.102 39.908 113.492 40.4691C114.318 41.6692 115.347 42.2692 116.578 42.2692C117.233 42.2692 117.723 42.1134 118.051 41.8017C118.394 41.4744 118.565 41.0068 118.565 40.399C118.565 39.8846 118.331 39.456 117.864 39.1131C117.412 38.7547 116.695 38.3183 115.713 37.804C114.871 37.3831 114.186 37.0091 113.656 36.6818C113.141 36.3389 112.697 35.9181 112.323 35.4194C111.965 34.905 111.785 34.305 111.785 33.6192C111.785 32.6841 112.183 31.9282 112.978 31.3515C113.788 30.7593 115.027 30.4631 116.695 30.4631C117.521 30.4631 118.285 30.6813 118.986 31.1177C119.329 31.3203 119.625 31.5307 119.874 31.7489C120.077 31.4684 120.35 31.2034 120.693 30.9541C120.957 30.7982 121.113 30.7125 121.16 30.6969H121.745V34.6712H120.809C120.576 34.0011 120.287 33.401 119.944 32.8711C119.165 31.6554 118.238 31.0476 117.162 31.0476C116.742 31.0476 116.383 31.2034 116.087 31.5152C115.791 31.8269 115.643 32.2165 115.643 32.6841C115.643 33.2763 115.892 33.7751 116.391 34.1803C116.89 34.5699 117.646 35.0219 118.659 35.5362C119.485 35.9571 120.139 36.3311 120.622 36.6584C121.121 36.9701 121.542 37.3598 121.885 37.8273C122.243 38.2949 122.423 38.8404 122.423 39.4638C122.423 41.7237 120.63 42.8537 117.046 42.8537Z" fill="black"/>
<path d="M129.203 42.8537C127.271 42.8537 125.751 42.3082 124.644 41.2172C123.553 40.1106 123.008 38.591 123.008 36.6584C123.008 34.7258 123.553 33.214 124.644 32.123C125.751 31.0164 127.271 30.4631 129.203 30.4631C131.136 30.4631 132.648 31.0164 133.739 32.123C134.845 33.214 135.398 34.7258 135.398 36.6584C135.398 38.591 134.845 40.1106 133.739 41.2172C132.648 42.3082 131.136 42.8537 129.203 42.8537ZM129.203 42.3861C129.827 42.3861 130.349 41.9497 130.77 41.0769C131.206 40.2041 131.424 38.7313 131.424 36.6584C131.424 34.5855 131.206 33.1127 130.77 32.2399C130.349 31.3671 129.827 30.9307 129.203 30.9307C128.58 30.9307 128.05 31.3671 127.613 32.2399C127.193 33.1127 126.982 34.5855 126.982 36.6584C126.982 38.7313 127.193 40.2041 127.613 41.0769C128.05 41.9497 128.58 42.3861 129.203 42.3861Z" fill="black"/>
<path d="M136.108 42.1523L137.511 41.8017V31.5152L136.108 31.1645V30.8138H138.212C139.132 30.8138 139.856 31.1099 140.386 31.7022C140.589 31.936 140.76 32.2243 140.901 32.5672C141.134 32.1308 141.384 31.7801 141.649 31.5152C142.35 30.8138 143.153 30.4631 144.057 30.4631C144.961 30.4631 145.756 30.6657 146.441 31.071C147.127 31.4606 147.657 31.9983 148.031 32.6841C148.265 32.2321 148.514 31.8658 148.779 31.5853C149.496 30.8372 150.299 30.4631 151.187 30.4631C152.013 30.4631 152.753 30.6346 153.408 30.9775C154.078 31.3203 154.593 31.7879 154.951 32.3802C155.325 32.9724 155.512 33.6192 155.512 34.3206V41.8017L156.915 42.1523V42.503H153.876C152.473 42.503 151.772 41.8017 151.772 40.399V34.3206C151.772 33.3075 151.616 32.5516 151.304 32.0529C150.992 31.5385 150.642 31.2814 150.252 31.2814C149.8 31.2814 149.34 31.5931 148.873 32.2165C148.686 32.5126 148.522 32.8244 148.382 33.1516V41.8017L149.784 42.1523V42.503H143.238V42.1523L144.641 41.8017V34.3206C144.641 33.3075 144.485 32.5516 144.174 32.0529C143.862 31.5385 143.511 31.2814 143.122 31.2814C142.67 31.2814 142.21 31.5931 141.742 32.2165C141.555 32.5126 141.392 32.8244 141.251 33.1516V41.8017L142.654 42.1523V42.503H136.108V42.1523Z" fill="black"/>
<path fill-rule="evenodd" clip-rule="evenodd" d="M46.7026 46.9675C46.5518 46.9972 46.3954 47.007 46.2369 46.995C41.3398 46.6234 36.7046 43.9185 34.0637 39.3443C31.4228 34.77 31.3978 29.4032 33.5247 24.9764C33.8335 24.3337 34.5028 23.9472 35.2138 24.0012C37.0387 24.1396 38.8273 24.6021 40.4898 25.3647C41.7443 22.9186 43.6003 20.8319 45.8626 19.2999C46.4529 18.9 47.2251 18.9 47.8155 19.2999C50.047 20.8111 51.8833 22.862 53.1368 25.2652C54.7363 24.5618 56.4472 24.1335 58.1914 24.0012C58.9024 23.9472 59.5718 24.3337 59.8806 24.9764C62.0074 29.4032 61.9825 34.77 59.3415 39.3443C56.7006 43.9185 52.0654 46.6234 47.1683 46.995C47.0098 47.007 46.8534 46.9972 46.7026 46.9675ZM50.2906 44.1946C53.226 43.1962 55.8223 41.1703 57.4928 38.2769C59.7164 34.4256 59.7888 29.922 58.0747 26.1538C56.6672 26.2904 55.2896 26.6504 53.9971 27.2187C54.6276 28.953 54.9715 30.8248 54.9715 32.777C54.9715 37.2261 53.1852 41.258 50.2906 44.1946ZM51.2469 26.2579C50.1996 24.2474 48.6825 22.5197 46.839 21.2198C44.9561 22.5475 43.4136 24.3216 42.3645 26.3874C44.0342 27.4552 45.5175 28.8598 46.7026 30.5712C47.9363 28.7896 49.4931 27.3406 51.2469 26.2579ZM47.9121 32.6417C48.9847 30.812 50.4295 29.3335 52.0955 28.2474C52.5763 29.6695 52.8368 31.1928 52.8368 32.777C52.8368 36.4341 51.4485 39.7674 49.166 42.2783C49.7836 39.1066 49.4101 35.7285 47.9121 32.6417ZM45.4931 32.6417C44.4688 30.8942 43.105 29.4672 41.5331 28.3963C41.0839 29.7756 40.8413 31.248 40.8413 32.777C40.8413 36.2466 42.0908 39.4247 44.168 41.8856C43.6543 38.8289 44.0568 35.6014 45.4931 32.6417ZM46.7026 43.3216C47.504 40.7732 47.5369 37.9931 46.7026 35.3576C45.8683 37.9931 45.9013 40.7732 46.7026 43.3216ZM35.9124 38.2769C37.6588 41.3017 40.4171 43.3785 43.5167 44.3242C40.5461 41.3772 38.7065 37.2919 38.7065 32.777C38.7065 30.8645 39.0366 29.0291 39.6429 27.3247C38.283 26.6949 36.8236 26.2987 35.3305 26.1538C33.6165 29.922 33.6889 34.4256 35.9124 38.2769Z" fill="black"/>
</svg>
