<svg width="1440" height="890" viewBox="0 0 1440 890" fill="none" xmlns="http://www.w3.org/2000/svg">
<g opacity="0.37">
<path d="M-589.999 635.973L271.968 -856.999" stroke="#DBE4ED"/>
<path d="M-368.321 763.959L493.646 -729.012" stroke="#DBE4ED"/>
<path d="M-146.641 891.946L715.326 -601.026" stroke="#DBE4ED"/>
<path d="M75.0372 1019.93L937.005 -473.04" stroke="#DBE4ED"/>
<path d="M-509.559 682.415L352.409 -810.557" stroke="#DBE4ED"/>
<path d="M-287.88 810.401L574.088 -682.57" stroke="#DBE4ED"/>
<path d="M-66.2009 938.387L795.767 -554.584" stroke="#DBE4ED"/>
<path d="M155.478 1066.37L1017.45 -426.598" stroke="#DBE4ED"/>
<path d="M-549.779 659.193L312.189 -833.778" stroke="#DBE4ED"/>
<path d="M-328.1 787.18L533.867 -705.791" stroke="#DBE4ED"/>
<path d="M-106.42 915.167L755.547 -577.805" stroke="#DBE4ED"/>
<path d="M115.258 1043.15L977.225 -449.819" stroke="#DBE4ED"/>
<path d="M-468.87 705.906L393.097 -787.066" stroke="#DBE4ED"/>
<path d="M-247.192 833.893L614.775 -659.079" stroke="#DBE4ED"/>
<path d="M-25.5122 961.878L836.455 -531.093" stroke="#DBE4ED"/>
<path d="M196.166 1089.86L1058.13 -403.107" stroke="#DBE4ED"/>
<path d="M-422.103 732.907L439.864 -760.064" stroke="#DBE4ED"/>
<path d="M-200.425 860.894L661.543 -632.077" stroke="#DBE4ED"/>
<path d="M21.2546 988.88L883.222 -504.092" stroke="#DBE4ED"/>
<path d="M242.933 1116.87L1104.9 -376.105" stroke="#DBE4ED"/>
<path d="M-569.889 647.583L292.079 -845.388" stroke="#DBE4ED"/>
<path d="M-348.21 775.57L513.757 -717.402" stroke="#DBE4ED"/>
<path d="M-126.531 903.556L735.436 -589.416" stroke="#DBE4ED"/>
<path d="M95.1476 1031.54L957.115 -461.43" stroke="#DBE4ED"/>
<path d="M-488.98 694.296L372.987 -798.676" stroke="#DBE4ED"/>
<path d="M-267.302 822.282L594.666 -670.69" stroke="#DBE4ED"/>
<path d="M-45.6232 950.268L816.344 -542.704" stroke="#DBE4ED"/>
<path d="M176.056 1078.25L1038.02 -414.717" stroke="#DBE4ED"/>
<path d="M-529.669 670.805L332.299 -822.167" stroke="#DBE4ED"/>
<path d="M-307.99 798.791L553.977 -694.181" stroke="#DBE4ED"/>
<path d="M-86.3099 926.777L775.658 -566.195" stroke="#DBE4ED"/>
<path d="M135.367 1054.76L997.335 -438.208" stroke="#DBE4ED"/>
<path d="M-448.76 717.516L-17.7767 -28.9695L413.207 -775.455" stroke="#DBE4ED"/>
<path d="M-227.081 845.503L203.903 99.0171L634.886 -647.469" stroke="#DBE4ED"/>
<path d="M-5.40332 973.489L425.58 227.003L856.564 -519.482" stroke="#DBE4ED"/>
<path d="M216.276 1101.48L647.26 354.99L1078.24 -391.496" stroke="#DBE4ED"/>
<path d="M-401.526 744.788L460.442 -748.184" stroke="#DBE4ED"/>
<path d="M-179.847 872.775L682.121 -620.197" stroke="#DBE4ED"/>
<path d="M41.8323 1000.76L903.8 -492.211" stroke="#DBE4ED"/>
<path d="M263.512 1128.75L1125.48 -364.225" stroke="#DBE4ED"/>
<path d="M-583.452 639.753L278.515 -853.218" stroke="#DBE4ED"/>
<path d="M-361.772 767.739L500.195 -725.233" stroke="#DBE4ED"/>
<path d="M-140.093 895.725L721.875 -597.247" stroke="#DBE4ED"/>
<path d="M81.5842 1023.71L943.552 -469.26" stroke="#DBE4ED"/>
<path d="M-502.544 686.465L359.424 -806.507" stroke="#DBE4ED"/>
<path d="M-280.864 814.452L581.104 -678.52" stroke="#DBE4ED"/>
<path d="M-59.1865 942.438L802.781 -550.534" stroke="#DBE4ED"/>
<path d="M162.493 1070.42L1024.46 -422.548" stroke="#DBE4ED"/>
<path d="M-542.764 663.244L319.204 -829.728" stroke="#DBE4ED"/>
<path d="M-321.084 791.23L540.883 -701.741" stroke="#DBE4ED"/>
<path d="M-99.4053 919.217L762.562 -573.755" stroke="#DBE4ED"/>
<path d="M122.273 1047.2L984.24 -445.769" stroke="#DBE4ED"/>
<path d="M-462.323 709.686L399.644 -783.285" stroke="#DBE4ED"/>
<path d="M-240.645 837.673L621.323 -655.299" stroke="#DBE4ED"/>
<path d="M-18.9652 965.658L843.002 -527.313" stroke="#DBE4ED"/>
<path d="M202.713 1093.65L1064.68 -399.327" stroke="#DBE4ED"/>
<path d="M-415.087 736.957L446.881 -756.014" stroke="#DBE4ED"/>
<path d="M-193.409 864.944L668.559 -628.028" stroke="#DBE4ED"/>
<path d="M28.2704 992.93L890.238 -500.042" stroke="#DBE4ED"/>
<path d="M249.949 1120.92L1111.92 -372.055" stroke="#DBE4ED"/>
<path d="M-563.342 651.363L298.626 -841.608" stroke="#DBE4ED"/>
<path d="M-341.663 779.35L520.305 -713.622" stroke="#DBE4ED"/>
<path d="M-119.984 907.337L741.983 -585.635" stroke="#DBE4ED"/>
<path d="M101.695 1035.32L963.663 -457.649" stroke="#DBE4ED"/>
<path d="M-482.433 698.075L379.534 -794.896" stroke="#DBE4ED"/>
<path d="M-260.755 826.062L601.213 -666.909" stroke="#DBE4ED"/>
<path d="M-39.0756 954.048L822.892 -538.924" stroke="#DBE4ED"/>
<path d="M182.602 1082.03L1044.57 -410.937" stroke="#DBE4ED"/>
<path d="M-522.653 674.854L339.314 -818.117" stroke="#DBE4ED"/>
<path d="M-300.974 802.841L560.993 -690.131" stroke="#DBE4ED"/>
<path d="M-79.295 930.828L782.673 -562.144" stroke="#DBE4ED"/>
<path d="M142.383 1058.81L1004.35 -434.158" stroke="#DBE4ED"/>
<path d="M-442.214 721.297L419.754 -771.675" stroke="#DBE4ED"/>
<path d="M-220.534 849.283L641.433 -643.689" stroke="#DBE4ED"/>
<path d="M1.14368 977.27L863.111 -515.702" stroke="#DBE4ED"/>
<path d="M222.824 1105.26L1084.79 -387.716" stroke="#DBE4ED"/>
<path d="M-394.978 748.568L466.99 -744.403" stroke="#DBE4ED"/>
<path d="M-173.299 876.555L688.668 -616.417" stroke="#DBE4ED"/>
<path d="M48.3799 1004.54L910.347 -488.431" stroke="#DBE4ED"/>
<path d="M270.059 1132.53L1132.03 -360.445" stroke="#DBE4ED"/>
<path d="M-381.415 756.398L480.553 -736.573" stroke="#DBE4ED"/>
<path d="M-159.736 884.385L702.231 -608.587" stroke="#DBE4ED"/>
<path d="M61.9426 1012.37L923.91 -480.601" stroke="#DBE4ED"/>
<path d="M283.621 1140.36L1145.59 -352.614" stroke="#DBE4ED"/>
<path d="M-576.437 643.803L285.531 -849.169" stroke="#DBE4ED"/>
<path d="M-354.757 771.789L507.21 -721.183" stroke="#DBE4ED"/>
<path d="M-133.079 899.776L728.889 -593.196" stroke="#DBE4ED"/>
<path d="M88.5999 1027.76L950.567 -465.21" stroke="#DBE4ED"/>
<path d="M-495.996 690.245L365.971 -802.726" stroke="#DBE4ED"/>
<path d="M-274.318 818.232L587.65 -674.74" stroke="#DBE4ED"/>
<path d="M-52.6382 946.218L809.329 -546.754" stroke="#DBE4ED"/>
<path d="M169.04 1074.2L1031.01 -418.768" stroke="#DBE4ED"/>
<path d="M-536.217 667.024L325.751 -825.947" stroke="#DBE4ED"/>
<path d="M-314.537 795.011L547.43 -697.961" stroke="#DBE4ED"/>
<path d="M-92.859 922.997L769.109 -569.974" stroke="#DBE4ED"/>
<path d="M128.821 1050.98L990.788 -441.989" stroke="#DBE4ED"/>
<path d="M-455.309 713.736L406.659 -779.235" stroke="#DBE4ED"/>
<path d="M-233.63 841.723L628.338 -651.249" stroke="#DBE4ED"/>
<path d="M-11.9503 969.709L850.017 -523.263" stroke="#DBE4ED"/>
<path d="M209.728 1097.7L1071.7 -395.276" stroke="#DBE4ED"/>
<path d="M-408.54 740.738L453.428 -752.234" stroke="#DBE4ED"/>
<path d="M-186.861 868.724L675.106 -624.247" stroke="#DBE4ED"/>
<path d="M34.8167 996.71L896.784 -496.261" stroke="#DBE4ED"/>
<path d="M256.496 1124.7L1118.46 -368.275" stroke="#DBE4ED"/>
<path d="M-556.326 655.414L305.641 -837.558" stroke="#DBE4ED"/>
<path d="M-334.647 783.4L527.32 -709.572" stroke="#DBE4ED"/>
<path d="M-112.968 911.386L749 -581.586" stroke="#DBE4ED"/>
<path d="M108.709 1039.37L970.677 -453.599" stroke="#DBE4ED"/>
<path d="M-475.886 701.856L386.082 -791.116" stroke="#DBE4ED"/>
<path d="M-254.207 829.842L607.76 -663.129" stroke="#DBE4ED"/>
<path d="M-32.5286 957.828L829.439 -535.143" stroke="#DBE4ED"/>
<path d="M189.151 1085.81L1051.12 -407.157" stroke="#DBE4ED"/>
<path d="M-428.651 729.127L433.317 -763.844" stroke="#DBE4ED"/>
<path d="M-206.971 857.114L654.997 -635.858" stroke="#DBE4ED"/>
<path d="M14.707 985.1L876.675 -507.872" stroke="#DBE4ED"/>
<path d="M236.386 1113.09L1098.35 -379.885" stroke="#DBE4ED"/>
<path d="M-516.106 678.635L345.862 -814.337" stroke="#DBE4ED"/>
<path d="M-294.428 806.621L567.54 -686.35" stroke="#DBE4ED"/>
<path d="M-72.7484 934.607L789.219 -558.365" stroke="#DBE4ED"/>
<path d="M148.93 1062.59L1010.9 -430.378" stroke="#DBE4ED"/>
<path d="M-435.198 725.347L426.77 -767.625" stroke="#DBE4ED"/>
<path d="M-213.519 853.334L648.448 -639.638" stroke="#DBE4ED"/>
<path d="M8.16003 981.319L870.128 -511.652" stroke="#DBE4ED"/>
<path d="M229.839 1109.31L1091.81 -383.666" stroke="#DBE4ED"/>
<path d="M-388.43 752.348L473.537 -740.623" stroke="#DBE4ED"/>
<path d="M-166.751 880.335L695.216 -612.637" stroke="#DBE4ED"/>
<path d="M54.927 1008.32L916.895 -484.651" stroke="#DBE4ED"/>
<path d="M276.607 1136.31L1138.57 -356.665" stroke="#DBE4ED"/>
<path d="M-374.868 760.179L487.1 -732.793" stroke="#DBE4ED"/>
<path d="M-153.188 888.165L708.779 -604.807" stroke="#DBE4ED"/>
<path d="M68.4896 1016.15L930.457 -476.82" stroke="#DBE4ED"/>
<path d="M290.169 1144.14L1152.14 -348.834" stroke="#DBE4ED"/>
</g>
<g opacity="0.37">
<path d="M297.22 1148.21L1159.19 -344.762" stroke="#DBE4ED"/>
<path d="M518.898 1276.2L1380.87 -216.776" stroke="#DBE4ED"/>
<path d="M740.578 1404.18L1602.55 -88.7895" stroke="#DBE4ED"/>
<path d="M962.257 1532.17L1824.22 39.1961" stroke="#DBE4ED"/>
<path d="M377.661 1194.65L1239.63 -298.32" stroke="#DBE4ED"/>
<path d="M599.34 1322.64L1461.31 -170.334" stroke="#DBE4ED"/>
<path d="M821.019 1450.62L1682.99 -42.3478" stroke="#DBE4ED"/>
<path d="M1042.7 1578.61L1904.67 85.6383" stroke="#DBE4ED"/>
<path d="M337.441 1171.43L1199.41 -321.542" stroke="#DBE4ED"/>
<path d="M559.119 1299.42L1421.09 -193.555" stroke="#DBE4ED"/>
<path d="M780.799 1427.4L1642.77 -65.5685" stroke="#DBE4ED"/>
<path d="M1002.48 1555.39L1864.44 62.4173" stroke="#DBE4ED"/>
<path d="M418.349 1218.14L1280.32 -274.83" stroke="#DBE4ED"/>
<path d="M640.027 1346.13L1501.99 -146.842" stroke="#DBE4ED"/>
<path d="M861.707 1474.11L1723.67 -18.8571" stroke="#DBE4ED"/>
<path d="M1083.39 1602.1L1945.35 109.129" stroke="#DBE4ED"/>
<path d="M465.116 1245.14L1327.08 -247.828" stroke="#DBE4ED"/>
<path d="M686.795 1373.13L1548.76 -119.841" stroke="#DBE4ED"/>
<path d="M908.474 1501.12L1770.44 8.14461" stroke="#DBE4ED"/>
<path d="M1130.15 1629.1L1992.12 136.131" stroke="#DBE4ED"/>
<path d="M317.331 1159.82L1179.3 -333.152" stroke="#DBE4ED"/>
<path d="M539.009 1287.81L1400.98 -205.165" stroke="#DBE4ED"/>
<path d="M760.688 1415.79L1622.66 -77.1791" stroke="#DBE4ED"/>
<path d="M982.367 1543.78L1844.33 50.8062" stroke="#DBE4ED"/>
<path d="M398.239 1206.53L1260.21 -286.44" stroke="#DBE4ED"/>
<path d="M619.918 1334.52L1481.89 -158.454" stroke="#DBE4ED"/>
<path d="M841.596 1462.5L1703.56 -30.4672" stroke="#DBE4ED"/>
<path d="M1063.28 1590.49L1925.24 97.5191" stroke="#DBE4ED"/>
<path d="M357.55 1183.04L1219.52 -309.931" stroke="#DBE4ED"/>
<path d="M579.229 1311.03L1441.2 -181.944" stroke="#DBE4ED"/>
<path d="M800.91 1439.01L1662.88 -53.9582" stroke="#DBE4ED"/>
<path d="M1022.59 1567L1884.55 74.0279" stroke="#DBE4ED"/>
<path d="M438.459 1229.75L869.443 483.267L1300.43 -263.219" stroke="#DBE4ED"/>
<path d="M660.138 1357.74L1091.12 611.253L1522.11 -135.232" stroke="#DBE4ED"/>
<path d="M881.816 1485.73L1312.8 739.24L1743.78 -7.24605" stroke="#DBE4ED"/>
<path d="M1103.5 1613.71L1534.48 867.226L1965.46 120.74" stroke="#DBE4ED"/>
<path d="M485.694 1257.02L1347.66 -235.947" stroke="#DBE4ED"/>
<path d="M707.373 1385.01L1569.34 -107.961" stroke="#DBE4ED"/>
<path d="M929.052 1513L1791.02 20.025" stroke="#DBE4ED"/>
<path d="M1150.73 1640.98L2012.7 148.012" stroke="#DBE4ED"/>
<path d="M303.767 1151.99L1165.73 -340.982" stroke="#DBE4ED"/>
<path d="M525.447 1279.98L1387.41 -212.996" stroke="#DBE4ED"/>
<path d="M747.126 1407.96L1609.09 -85.0099" stroke="#DBE4ED"/>
<path d="M968.804 1535.95L1830.77 42.9764" stroke="#DBE4ED"/>
<path d="M384.676 1198.7L1246.64 -294.27" stroke="#DBE4ED"/>
<path d="M606.356 1326.69L1468.32 -166.284" stroke="#DBE4ED"/>
<path d="M828.033 1454.67L1690 -38.2975" stroke="#DBE4ED"/>
<path d="M1049.71 1582.66L1911.68 89.6883" stroke="#DBE4ED"/>
<path d="M344.456 1175.48L1206.42 -317.491" stroke="#DBE4ED"/>
<path d="M566.135 1303.47L1428.1 -189.505" stroke="#DBE4ED"/>
<path d="M787.814 1431.45L1649.78 -61.5185" stroke="#DBE4ED"/>
<path d="M1009.49 1559.44L1871.46 66.4674" stroke="#DBE4ED"/>
<path d="M424.896 1221.92L1286.86 -271.049" stroke="#DBE4ED"/>
<path d="M646.575 1349.91L1508.54 -143.062" stroke="#DBE4ED"/>
<path d="M868.254 1477.89L1730.22 -15.0768" stroke="#DBE4ED"/>
<path d="M1089.93 1605.88L1951.9 112.91" stroke="#DBE4ED"/>
<path d="M472.133 1249.19L1334.1 -243.778" stroke="#DBE4ED"/>
<path d="M693.811 1377.18L1555.78 -115.791" stroke="#DBE4ED"/>
<path d="M915.49 1505.17L1777.46 12.1944" stroke="#DBE4ED"/>
<path d="M1137.17 1633.15L1999.14 140.181" stroke="#DBE4ED"/>
<path d="M323.878 1163.6L1185.85 -329.372" stroke="#DBE4ED"/>
<path d="M545.557 1291.59L1407.52 -201.385" stroke="#DBE4ED"/>
<path d="M767.235 1419.57L1629.2 -73.3986" stroke="#DBE4ED"/>
<path d="M988.915 1547.56L1850.88 54.587" stroke="#DBE4ED"/>
<path d="M404.786 1210.31L1266.75 -282.66" stroke="#DBE4ED"/>
<path d="M626.465 1338.3L1488.43 -154.673" stroke="#DBE4ED"/>
<path d="M848.144 1466.28L1710.11 -26.6872" stroke="#DBE4ED"/>
<path d="M1069.82 1594.27L1931.79 101.3" stroke="#DBE4ED"/>
<path d="M364.566 1187.09L1226.53 -305.881" stroke="#DBE4ED"/>
<path d="M586.245 1315.08L1448.21 -177.895" stroke="#DBE4ED"/>
<path d="M807.925 1443.06L1669.89 -49.9074" stroke="#DBE4ED"/>
<path d="M1029.6 1571.05L1891.57 78.078" stroke="#DBE4ED"/>
<path d="M445.006 1233.53L1306.97 -259.438" stroke="#DBE4ED"/>
<path d="M666.685 1361.52L1528.65 -131.452" stroke="#DBE4ED"/>
<path d="M888.363 1489.51L1750.33 -3.4655" stroke="#DBE4ED"/>
<path d="M1110.04 1617.49L1972.01 124.52" stroke="#DBE4ED"/>
<path d="M492.241 1260.8L1354.21 -232.167" stroke="#DBE4ED"/>
<path d="M713.92 1388.79L1575.89 -104.181" stroke="#DBE4ED"/>
<path d="M935.6 1516.78L1797.57 23.8053" stroke="#DBE4ED"/>
<path d="M1157.28 1644.76L2019.25 151.792" stroke="#DBE4ED"/>
<path d="M505.805 1268.63L1367.77 -224.337" stroke="#DBE4ED"/>
<path d="M727.483 1396.62L1589.45 -96.35" stroke="#DBE4ED"/>
<path d="M949.162 1524.61L1811.13 31.6358" stroke="#DBE4ED"/>
<path d="M1170.84 1652.59L2032.81 159.622" stroke="#DBE4ED"/>
<path d="M310.783 1156.04L1172.75 -336.932" stroke="#DBE4ED"/>
<path d="M532.462 1284.03L1394.43 -208.946" stroke="#DBE4ED"/>
<path d="M754.141 1412.01L1616.11 -80.9592" stroke="#DBE4ED"/>
<path d="M975.819 1540L1837.79 47.0267" stroke="#DBE4ED"/>
<path d="M391.223 1202.48L1253.19 -290.49" stroke="#DBE4ED"/>
<path d="M612.902 1330.47L1474.87 -162.504" stroke="#DBE4ED"/>
<path d="M834.581 1458.45L1696.55 -34.5175" stroke="#DBE4ED"/>
<path d="M1056.26 1586.44L1918.23 93.4688" stroke="#DBE4ED"/>
<path d="M351.003 1179.26L1212.97 -313.711" stroke="#DBE4ED"/>
<path d="M572.682 1307.25L1434.65 -185.725" stroke="#DBE4ED"/>
<path d="M794.361 1435.23L1656.33 -57.738" stroke="#DBE4ED"/>
<path d="M1016.04 1563.22L1878.01 70.2476" stroke="#DBE4ED"/>
<path d="M431.911 1225.97L1293.88 -266.999" stroke="#DBE4ED"/>
<path d="M653.59 1353.96L1515.56 -139.013" stroke="#DBE4ED"/>
<path d="M875.269 1481.95L1737.24 -11.0263" stroke="#DBE4ED"/>
<path d="M1096.95 1609.93L1958.92 116.96" stroke="#DBE4ED"/>
<path d="M478.68 1252.97L1340.65 -239.997" stroke="#DBE4ED"/>
<path d="M700.358 1380.96L1562.33 -112.011" stroke="#DBE4ED"/>
<path d="M922.036 1508.95L1784 15.9752" stroke="#DBE4ED"/>
<path d="M1143.72 1636.93L2005.68 143.961" stroke="#DBE4ED"/>
<path d="M330.893 1167.65L1192.86 -325.322" stroke="#DBE4ED"/>
<path d="M552.573 1295.64L1414.54 -197.335" stroke="#DBE4ED"/>
<path d="M774.252 1423.62L1636.22 -69.349" stroke="#DBE4ED"/>
<path d="M995.929 1551.61L1857.9 58.6373" stroke="#DBE4ED"/>
<path d="M411.334 1214.09L1273.3 -278.879" stroke="#DBE4ED"/>
<path d="M633.012 1342.08L1494.98 -150.893" stroke="#DBE4ED"/>
<path d="M854.691 1470.06L1716.66 -22.9069" stroke="#DBE4ED"/>
<path d="M1076.37 1598.05L1938.34 105.079" stroke="#DBE4ED"/>
<path d="M458.569 1241.36L1320.54 -251.608" stroke="#DBE4ED"/>
<path d="M680.249 1369.35L1542.22 -123.622" stroke="#DBE4ED"/>
<path d="M901.927 1497.34L1763.89 4.36433" stroke="#DBE4ED"/>
<path d="M1123.61 1625.32L1985.57 132.351" stroke="#DBE4ED"/>
<path d="M371.114 1190.87L1233.08 -302.101" stroke="#DBE4ED"/>
<path d="M592.792 1318.86L1454.76 -174.114" stroke="#DBE4ED"/>
<path d="M814.471 1446.84L1676.44 -46.1281" stroke="#DBE4ED"/>
<path d="M1036.15 1574.83L1898.12 81.8585" stroke="#DBE4ED"/>
<path d="M452.022 1237.58L1313.99 -255.388" stroke="#DBE4ED"/>
<path d="M673.7 1365.57L1535.67 -127.402" stroke="#DBE4ED"/>
<path d="M895.38 1493.56L1757.35 0.58406" stroke="#DBE4ED"/>
<path d="M1117.06 1621.54L1979.03 128.57" stroke="#DBE4ED"/>
<path d="M498.789 1264.58L1360.76 -228.387" stroke="#DBE4ED"/>
<path d="M720.469 1392.57L1582.44 -100.401" stroke="#DBE4ED"/>
<path d="M942.146 1520.56L1804.11 27.5858" stroke="#DBE4ED"/>
<path d="M1163.83 1648.54L2025.79 155.572" stroke="#DBE4ED"/>
<path d="M512.352 1272.42L1374.32 -220.557" stroke="#DBE4ED"/>
<path d="M734.031 1400.4L1596 -92.5705" stroke="#DBE4ED"/>
<path d="M955.709 1528.39L1817.68 35.4158" stroke="#DBE4ED"/>
<path d="M1177.39 1656.37L2039.36 163.402" stroke="#DBE4ED"/>
</g>
</svg>
