<svg width="188" height="66" viewBox="0 0 188 66" fill="none" xmlns="http://www.w3.org/2000/svg">
<rect x="0.5" y="0.5" width="187" height="65" rx="10.5" fill="white" stroke="#E8E8E8"/>
<path opacity="0.8" d="M57.9216 30.1462H65.2924L57.9216 19H50.5508L57.9216 30.1462Z" fill="black"/>
<path opacity="0.9" d="M50.3723 30.1462H43.0015L50.3723 19H57.7431L50.3723 30.1462Z" fill="black"/>
<path opacity="0.6" d="M57.9209 41.2925L57.9209 30.1464L65.2917 30.1464L65.2917 41.2925L57.9209 41.2925Z" fill="black"/>
<path d="M43 41.2925L43 30.1464L50.3708 30.1464L50.3708 41.2925L43 41.2925Z" fill="black"/>
<path d="M84.1375 26.1389V41.3067H81.0953V34.8528H74.5979V41.3067H71.5557V26.1389H74.5979V32.3755H81.0953V26.1389H84.1375Z" fill="black"/>
<path d="M91.6083 41.5023C90.4493 41.5023 89.4063 41.2487 88.4791 40.7417C87.552 40.2202 86.8204 39.4886 86.2844 38.5469C85.7628 37.6053 85.5021 36.5188 85.5021 35.2874C85.5021 34.056 85.7701 32.9695 86.3061 32.0278C86.8566 31.0862 87.6027 30.3618 88.5443 29.8548C89.486 29.3333 90.5363 29.0725 91.6952 29.0725C92.8542 29.0725 93.9044 29.3333 94.8461 29.8548C95.7877 30.3618 96.5266 31.0862 97.0626 32.0278C97.6131 32.9695 97.8883 34.056 97.8883 35.2874C97.8883 36.5188 97.6058 37.6053 97.0408 38.5469C96.4903 39.4886 95.737 40.2202 94.7809 40.7417C93.8393 41.2487 92.7817 41.5023 91.6083 41.5023ZM91.6083 38.8512C92.1588 38.8512 92.6731 38.7208 93.1511 38.46C93.6437 38.1848 94.0348 37.7791 94.3246 37.2431C94.6143 36.7071 94.7592 36.0552 94.7592 35.2874C94.7592 34.1429 94.4549 33.2665 93.8465 32.658C93.2525 32.0351 92.521 31.7236 91.6517 31.7236C90.7825 31.7236 90.0509 32.0351 89.457 32.658C88.8775 33.2665 88.5878 34.1429 88.5878 35.2874C88.5878 36.4318 88.8703 37.3155 89.4353 37.9385C90.0147 38.5469 90.7391 38.8512 91.6083 38.8512Z" fill="black"/>
<path d="M114.201 29.0942C115.679 29.0942 116.867 29.5506 117.765 30.4633C118.678 31.3614 119.134 32.6218 119.134 34.2443V41.3067H116.092V34.6572C116.092 33.7156 115.853 32.9985 115.375 32.5059C114.897 31.9989 114.245 31.7453 113.419 31.7453C112.593 31.7453 111.934 31.9989 111.441 32.5059C110.963 32.9985 110.724 33.7156 110.724 34.6572V41.3067H107.682V34.6572C107.682 33.7156 107.443 32.9985 106.965 32.5059C106.487 31.9989 105.835 31.7453 105.009 31.7453C104.169 31.7453 103.503 31.9989 103.01 32.5059C102.532 32.9985 102.293 33.7156 102.293 34.6572V41.3067H99.2507V29.2681H102.293V30.724C102.684 30.217 103.184 29.8186 103.792 29.5288C104.415 29.2391 105.096 29.0942 105.835 29.0942C106.777 29.0942 107.617 29.2971 108.356 29.7027C109.095 30.0938 109.667 30.6588 110.072 31.3977C110.464 30.7023 111.029 30.1445 111.767 29.7244C112.521 29.3043 113.332 29.0942 114.201 29.0942Z" fill="black"/>
<path d="M132.343 35.0266C132.343 35.4612 132.314 35.8524 132.256 36.2001H123.455C123.527 37.0693 123.832 37.7502 124.368 38.2427C124.904 38.7353 125.563 38.9815 126.345 38.9815C127.475 38.9815 128.279 38.4962 128.757 37.5256H132.038C131.691 38.6846 131.024 39.6407 130.039 40.394C129.054 41.1328 127.845 41.5023 126.41 41.5023C125.251 41.5023 124.208 41.2487 123.281 40.7417C122.368 40.2202 121.651 39.4886 121.13 38.5469C120.623 37.6053 120.369 36.5188 120.369 35.2874C120.369 34.0415 120.623 32.9478 121.13 32.0061C121.637 31.0645 122.347 30.3401 123.259 29.8331C124.172 29.326 125.222 29.0725 126.41 29.0725C127.555 29.0725 128.576 29.3188 129.474 29.8113C130.387 30.3039 131.09 31.0065 131.582 31.9192C132.089 32.8174 132.343 33.8532 132.343 35.0266ZM129.192 34.1574C129.177 33.3751 128.895 32.7522 128.344 32.2886C127.794 31.8105 127.12 31.5715 126.323 31.5715C125.57 31.5715 124.933 31.8033 124.411 32.2669C123.904 32.716 123.593 33.3461 123.477 34.1574H129.192Z" fill="black"/>
<path d="M145.211 29.2681L137.758 47H134.52L137.127 41.0025L132.303 29.2681H135.715L138.822 37.6777L141.973 29.2681H145.211Z" fill="black"/>
</svg>
