<svg width="79" height="79" viewBox="0 0 79 79" fill="none" xmlns="http://www.w3.org/2000/svg">
<rect x="-0.612372" y="0.353553" width="63" height="63" rx="11.5" transform="matrix(-0.965926 -0.258819 -0.258819 0.965926 77.2713 16.418)" fill="white" stroke="#E8E8E8"/>
<g clip-path="url(#clip0_1_28130)">
<path d="M29.1213 30.0594L33.5869 35.4839C33.8193 35.766 33.9355 35.9072 34.0795 35.9712C34.2062 36.0273 34.3474 36.0427 34.4832 36.015C34.6376 35.9835 34.7814 35.8706 35.069 35.6449L36.6529 34.4016C36.7342 34.3378 36.7749 34.3059 36.8193 34.2808C36.8588 34.2586 36.9004 34.2405 36.9436 34.2267C36.9922 34.2112 37.0432 34.2031 37.1453 34.187L42.7211 33.3077C42.9522 33.2712 43.0677 33.253 43.1648 33.2022C43.2507 33.1572 43.3257 33.0941 43.3847 33.0172C43.4514 32.9302 43.489 32.8195 43.5645 32.598L45.3956 27.2237M40.4699 41.4062L43.4522 43.7528C43.7981 44.0251 43.9712 44.1613 44.0375 44.3282C44.0955 44.4746 44.1 44.6369 44.0499 44.7862C43.9928 44.9564 43.8274 45.1018 43.4967 45.3923L41.2776 47.3426C41.1209 47.4803 41.0424 47.5491 40.9523 47.5902C40.8725 47.6263 40.7864 47.6465 40.6988 47.6493C40.5999 47.6527 40.499 47.6256 40.2975 47.5716L37.7277 46.8831C37.4608 46.8115 37.3272 46.7757 37.2256 46.7006C37.1358 46.6343 37.0641 46.5465 37.0171 46.4453C36.9639 46.3307 36.9556 46.1926 36.9391 45.9167L36.759 42.9164C36.7492 42.7535 36.7444 42.6721 36.7581 42.5945C36.7704 42.5256 36.7933 42.459 36.8263 42.3973C36.8634 42.3278 36.9175 42.2667 37.0257 42.1447L38.0968 40.9368C38.3144 40.6913 38.4232 40.5686 38.556 40.5099C38.6728 40.4581 38.8023 40.4412 38.9286 40.4608C39.072 40.4832 39.2088 40.5735 39.4826 40.7543L40.4699 41.4062ZM51.9347 42.4076C50.0288 49.5204 42.7176 53.7416 35.6048 51.8357C28.4919 49.9298 24.2708 42.6186 26.1767 35.5058C28.0826 28.3929 35.3937 24.1718 42.5066 26.0777C49.6194 27.9835 53.8406 35.2947 51.9347 42.4076Z" stroke="black" stroke-width="2" stroke-linecap="round" stroke-linejoin="round"/>
</g>
<defs>
<clipPath id="clip0_1_28130">
<rect width="32" height="32" fill="white" transform="translate(27.742 19.3608) rotate(15)"/>
</clipPath>
</defs>
</svg>
