<svg width="79" height="79" viewBox="0 0 79 79" fill="none" xmlns="http://www.w3.org/2000/svg">
<rect x="0.996161" y="16.918" width="63" height="63" rx="11.5" transform="rotate(-15 0.996161 16.918)" fill="white" stroke="#E8E8E8"/>
<g clip-path="url(#clip0_1_28126)">
<path d="M38.5589 25.834L39.9844 31.1537C40.1776 31.875 40.2743 32.2356 40.4885 32.4735C40.6769 32.6828 40.9266 32.827 41.2021 32.8856C41.5152 32.9521 41.8758 32.8555 42.5971 32.6622L47.9168 31.2368M43.6423 44.8054L35.9149 46.8759M44.8377 38.9636L34.5345 41.7243M48.95 33.7043L51.4387 42.9924C52.0186 45.1563 52.3084 46.2382 52.1088 47.1776C51.9332 48.0039 51.5005 48.7532 50.8727 49.3184C50.159 49.9611 49.0772 50.2509 46.9132 50.8308L38.6707 53.0394C36.5068 53.6192 35.4249 53.9091 34.4855 53.7094C33.6593 53.5338 32.9098 53.1011 32.3446 52.4734C31.702 51.7596 31.4121 50.6778 30.8323 48.5139L27.2434 35.1197C26.6635 32.9558 26.3736 31.8739 26.5733 30.9346C26.7489 30.1083 27.1816 29.3588 27.8094 28.7936C28.523 28.151 29.605 27.8611 31.7688 27.2813L35.9053 26.173C36.8503 25.9198 37.3228 25.7932 37.7961 25.7808C38.2157 25.7698 38.6344 25.8249 39.0369 25.9441C39.4908 26.0786 39.9144 26.3232 40.7617 26.8123L45.9681 29.8182C46.8154 30.3074 47.239 30.552 47.5824 30.8779C47.8869 31.1668 48.144 31.5019 48.3443 31.8707C48.5702 32.2868 48.6968 32.7593 48.95 33.7043Z" stroke="black" stroke-width="2" stroke-linecap="round" stroke-linejoin="round"/>
</g>
<defs>
<clipPath id="clip0_1_28126">
<rect width="32" height="32" fill="white" transform="translate(19.7451 27.7423) rotate(-15)"/>
</clipPath>
</defs>
</svg>
