<svg width="188" height="66" viewBox="0 0 188 66" fill="none" xmlns="http://www.w3.org/2000/svg">
<rect x="0.5" y="0.5" width="187" height="65" rx="10.5" fill="white" stroke="#E8E8E8"/>
<path d="M30.3086 22.8952C32.1379 21.1488 34.6217 20.1294 37.1392 20.0026C38.0008 20.0026 38.865 20.0078 39.7266 20C39.6826 20.9237 39.7266 21.8499 39.7007 22.7736C39.5791 24.8383 38.8158 26.8564 37.5299 28.476C35.8585 30.6545 33.3022 32.1164 30.5881 32.4941C29.4031 32.6856 28.2 32.564 27.0072 32.5976C27.0279 31.5808 26.9632 30.5614 27.0434 29.5472C27.2763 27.0323 28.4639 24.6235 30.3086 22.8952Z" fill="black"/>
<path d="M40.5232 20C41.4469 20.0103 42.3706 19.9948 43.2968 20.0052C45.6022 20.1682 47.8764 21.053 49.6125 22.5873C51.5272 24.2303 52.839 26.5795 53.1753 29.0892C53.3228 30.2535 53.2296 31.4307 53.2866 32.6002C52.4793 32.5976 51.6747 32.595 50.8674 32.6002C48.8829 32.5459 46.932 31.9042 45.271 30.8227C44.5051 30.2742 43.7186 29.7179 43.1442 28.9573C41.8841 27.5498 41.0277 25.7826 40.7043 23.9198C40.4611 22.6261 40.5594 21.3066 40.5232 20Z" fill="black"/>
<path d="M27.0086 33.3403C27.8288 33.3868 28.6516 33.3015 29.4692 33.392C32.9698 33.467 36.367 35.4334 38.1807 38.4269C39.2209 40.1035 39.7797 42.0906 39.7073 44.0647C39.7047 44.7115 39.715 45.3557 39.6969 46C38.3981 45.9612 37.0863 46.0672 35.8004 45.8163C32.944 45.335 30.3178 43.6352 28.7369 41.2083C27.539 39.4437 26.9413 37.2885 27.0034 35.1591C27.0034 34.5511 27.0034 33.9457 27.0086 33.3403Z" fill="black"/>
<path d="M48.9157 33.6144C50.3232 33.3014 51.7747 33.3531 53.2055 33.3531L53.2676 33.4152C53.2366 34.7684 53.3427 36.1371 53.071 37.4747C52.4992 40.476 50.5121 43.1564 47.8394 44.6286C46.1757 45.5549 44.2663 46.0102 42.3646 45.9895C41.7565 45.9921 41.1459 45.9792 40.5379 45.9973C40.5379 44.877 40.4913 43.7515 40.6181 42.6364C40.9131 39.9378 42.3723 37.4255 44.4707 35.7283C45.7695 34.7037 47.296 33.9611 48.9157 33.6144Z" fill="black"/>
<path d="M63.8889 40.9886C63.8889 41.4441 63.7313 41.8295 63.4159 42.1449C63.1181 42.4427 62.7414 42.5916 62.2859 42.5916C61.8479 42.5916 61.48 42.4427 61.1822 42.1449C60.8844 41.8295 60.7355 41.4441 60.7355 40.9886V24.7485C60.7355 24.293 60.8844 23.9163 61.1822 23.6185C61.4976 23.3032 61.883 23.1455 62.3385 23.1455C62.794 23.1455 63.1619 23.3032 63.4422 23.6185C63.74 23.9163 63.8889 24.293 63.8889 24.7485V40.9886Z" fill="black"/>
<path d="M76.5461 28.5326C77.0016 28.5326 77.3783 28.6903 77.6761 29.0056C77.9739 29.3034 78.1228 29.6801 78.1228 30.1356V36.8103C78.1228 38.6673 77.606 40.1389 76.5724 41.2251C75.5387 42.3113 74.0496 42.8544 72.105 42.8544C70.1603 42.8544 68.6712 42.3113 67.6376 41.2251C66.6215 40.1389 66.1134 38.6673 66.1134 36.8103V30.1356C66.1134 29.6801 66.2623 29.3034 66.5601 29.0056C66.858 28.6903 67.2346 28.5326 67.6901 28.5326C68.1456 28.5326 68.5223 28.6903 68.8201 29.0056C69.1179 29.3034 69.2669 29.6801 69.2669 30.1356V36.8103C69.2669 37.879 69.5034 38.6761 69.9764 39.2017C70.4494 39.7097 71.1589 39.9637 72.105 39.9637C73.0685 39.9637 73.7868 39.7097 74.2598 39.2017C74.7329 38.6761 74.9694 37.879 74.9694 36.8103V30.1356C74.9694 29.6801 75.1183 29.3034 75.4161 29.0056C75.7139 28.6903 76.0906 28.5326 76.5461 28.5326Z" fill="black"/>
<path d="M87.6072 28.2698C89.0088 28.2698 90.0424 28.6114 90.7081 29.2947C91.3739 29.9604 91.8119 30.8276 92.0221 31.8962L91.5753 31.6597L91.7856 31.2393C91.9958 30.8363 92.3199 30.4071 92.7579 29.9516C93.1959 29.4786 93.7215 29.0844 94.3346 28.7691C94.9653 28.4362 95.6661 28.2698 96.4369 28.2698C97.6983 28.2698 98.6531 28.5414 99.3013 29.0844C99.9671 29.6275 100.423 30.3546 100.668 31.2656C100.913 32.159 101.036 33.1576 101.036 34.2613V40.9886C101.036 41.4441 100.887 41.8295 100.589 42.1449C100.291 42.4427 99.9145 42.5916 99.459 42.5916C99.0035 42.5916 98.6268 42.4427 98.329 42.1449C98.0312 41.8295 97.8823 41.4441 97.8823 40.9886V34.2613C97.8823 33.6832 97.8122 33.1664 97.672 32.7109C97.5319 32.2379 97.2779 31.8612 96.91 31.5809C96.542 31.3006 96.0165 31.1604 95.3332 31.1604C94.6675 31.1604 94.0981 31.3006 93.6251 31.5809C93.1521 31.8612 92.7929 32.2379 92.5477 32.7109C92.3199 33.1664 92.206 33.6832 92.206 34.2613V40.9886C92.206 41.4441 92.0571 41.8295 91.7593 42.1449C91.4615 42.4427 91.0848 42.5916 90.6293 42.5916C90.1738 42.5916 89.7971 42.4427 89.4993 42.1449C89.2015 41.8295 89.0526 41.4441 89.0526 40.9886V34.2613C89.0526 33.6832 88.9825 33.1664 88.8423 32.7109C88.7022 32.2379 88.4482 31.8612 88.0803 31.5809C87.7124 31.3006 87.1868 31.1604 86.5035 31.1604C85.8378 31.1604 85.2684 31.3006 84.7954 31.5809C84.3224 31.8612 83.9632 32.2379 83.718 32.7109C83.4902 33.1664 83.3763 33.6832 83.3763 34.2613V40.9886C83.3763 41.4441 83.2274 41.8295 82.9296 42.1449C82.6318 42.4427 82.2551 42.5916 81.7996 42.5916C81.3441 42.5916 80.9674 42.4427 80.6696 42.1449C80.3718 41.8295 80.2229 41.4441 80.2229 40.9886V30.1356C80.2229 29.6801 80.3718 29.3034 80.6696 29.0056C80.9674 28.6903 81.3441 28.5326 81.7996 28.5326C82.2551 28.5326 82.6318 28.6903 82.9296 29.0056C83.2274 29.3034 83.3763 29.6801 83.3763 30.1356V31.2656L82.9822 31.1867C83.1398 30.8889 83.3588 30.5736 83.6391 30.2407C83.9194 29.8903 84.2611 29.5662 84.664 29.2684C85.0669 28.9706 85.5137 28.7341 86.0042 28.5589C86.4948 28.3662 87.0291 28.2698 87.6072 28.2698Z" fill="black"/>
<path d="M106.104 40.9886C106.104 41.4441 105.955 41.8295 105.658 42.1449C105.36 42.4427 104.983 42.5916 104.528 42.5916C104.072 42.5916 103.695 42.4427 103.398 42.1449C103.1 41.8295 102.951 41.4441 102.951 40.9886V30.1356C102.951 29.6801 103.1 29.3034 103.398 29.0056C103.695 28.6903 104.072 28.5326 104.528 28.5326C104.983 28.5326 105.36 28.6903 105.658 29.0056C105.955 29.3034 106.104 29.6801 106.104 30.1356V40.9886ZM104.501 26.8245C103.906 26.8245 103.485 26.7281 103.24 26.5354C102.995 26.3427 102.872 26.0011 102.872 25.5106V25.0113C102.872 24.5032 103.003 24.1616 103.266 23.9864C103.546 23.7937 103.967 23.6974 104.528 23.6974C105.141 23.6974 105.57 23.7937 105.815 23.9864C106.06 24.1791 106.183 24.5207 106.183 25.0113V25.5106C106.183 26.0186 106.052 26.369 105.789 26.5617C105.526 26.7369 105.097 26.8245 104.501 26.8245Z" fill="black"/>
<path d="M115.547 28.2698C116.843 28.2698 117.824 28.5414 118.49 29.0844C119.173 29.6275 119.638 30.3546 119.883 31.2656C120.146 32.159 120.277 33.1576 120.277 34.2613V40.9886C120.277 41.4441 120.128 41.8295 119.83 42.1449C119.533 42.4427 119.156 42.5916 118.7 42.5916C118.245 42.5916 117.868 42.4427 117.57 42.1449C117.273 41.8295 117.124 41.4441 117.124 40.9886V34.2613C117.124 33.6832 117.045 33.1664 116.887 32.7109C116.747 32.2379 116.484 31.8612 116.099 31.5809C115.713 31.3006 115.162 31.1604 114.443 31.1604C113.743 31.1604 113.147 31.3006 112.656 31.5809C112.183 31.8612 111.815 32.2379 111.553 32.7109C111.307 33.1664 111.185 33.6832 111.185 34.2613V40.9886C111.185 41.4441 111.036 41.8295 110.738 42.1449C110.44 42.4427 110.063 42.5916 109.608 42.5916C109.152 42.5916 108.776 42.4427 108.478 42.1449C108.18 41.8295 108.031 41.4441 108.031 40.9886V30.1356C108.031 29.6801 108.18 29.3034 108.478 29.0056C108.776 28.6903 109.152 28.5326 109.608 28.5326C110.063 28.5326 110.44 28.6903 110.738 29.0056C111.036 29.3034 111.185 29.6801 111.185 30.1356V31.2656L110.791 31.1867C110.948 30.8889 111.176 30.5736 111.474 30.2407C111.772 29.8903 112.122 29.5662 112.525 29.2684C112.928 28.9706 113.383 28.7341 113.891 28.5589C114.399 28.3662 114.951 28.2698 115.547 28.2698Z" fill="black"/>
<path d="M135.879 35.5752C135.879 37.0118 135.555 38.2819 134.907 39.3856C134.276 40.4718 133.418 41.3215 132.331 41.9346C131.263 42.5478 130.063 42.8544 128.731 42.8544C127.4 42.8544 126.191 42.5478 125.105 41.9346C124.036 41.3215 123.178 40.4718 122.529 39.3856C121.899 38.2819 121.583 37.0118 121.583 35.5752C121.583 34.1387 121.899 32.8773 122.529 31.7911C123.178 30.6874 124.036 29.829 125.105 29.2158C126.191 28.5852 127.4 28.2698 128.731 28.2698C130.063 28.2698 131.263 28.5852 132.331 29.2158C133.418 29.829 134.276 30.6874 134.907 31.7911C135.555 32.8773 135.879 34.1387 135.879 35.5752ZM132.726 35.5752C132.726 34.6818 132.542 33.9109 132.174 33.2627C131.823 32.597 131.342 32.0802 130.728 31.7123C130.133 31.3444 129.467 31.1604 128.731 31.1604C127.995 31.1604 127.321 31.3444 126.708 31.7123C126.112 32.0802 125.63 32.597 125.262 33.2627C124.912 33.9109 124.737 34.6818 124.737 35.5752C124.737 36.4512 124.912 37.222 125.262 37.8877C125.63 38.5359 126.112 39.044 126.708 39.4119C127.321 39.7798 127.995 39.9637 128.731 39.9637C129.467 39.9637 130.133 39.7798 130.728 39.4119C131.342 39.044 131.823 38.5359 132.174 37.8877C132.542 37.222 132.726 36.4512 132.726 35.5752Z" fill="black"/>
<path d="M147.632 28.5326C148.088 28.5326 148.465 28.6903 148.762 29.0056C149.06 29.3034 149.209 29.6801 149.209 30.1356V36.8103C149.209 38.6673 148.692 40.1389 147.659 41.2251C146.625 42.3113 145.136 42.8544 143.191 42.8544C141.247 42.8544 139.758 42.3113 138.724 41.2251C137.708 40.1389 137.2 38.6673 137.2 36.8103V30.1356C137.2 29.6801 137.349 29.3034 137.646 29.0056C137.944 28.6903 138.321 28.5326 138.776 28.5326C139.232 28.5326 139.609 28.6903 139.906 29.0056C140.204 29.3034 140.353 29.6801 140.353 30.1356V36.8103C140.353 37.879 140.59 38.6761 141.063 39.2017C141.536 39.7097 142.245 39.9637 143.191 39.9637C144.155 39.9637 144.873 39.7097 145.346 39.2017C145.819 38.6761 146.056 37.879 146.056 36.8103V30.1356C146.056 29.6801 146.205 29.3034 146.502 29.0056C146.8 28.6903 147.177 28.5326 147.632 28.5326Z" fill="black"/>
<path d="M150.495 40.4105C150.319 40.1652 150.241 39.8499 150.258 39.4644C150.276 39.079 150.503 38.7462 150.941 38.4659C151.222 38.2907 151.519 38.2206 151.835 38.2556C152.15 38.2732 152.457 38.4308 152.755 38.7287C153.263 39.2367 153.797 39.6309 154.358 39.9112C154.918 40.1915 155.619 40.3316 156.46 40.3316C156.723 40.3141 157.012 40.2791 157.327 40.2265C157.642 40.1564 157.914 40.0163 158.142 39.8061C158.387 39.5783 158.51 39.2367 158.51 38.7812C158.51 38.3958 158.378 38.0892 158.115 37.8615C157.853 37.6337 157.502 37.441 157.064 37.2833C156.644 37.1257 156.171 36.9768 155.645 36.8366C155.102 36.6789 154.542 36.5037 153.963 36.311C153.403 36.1183 152.886 35.8731 152.413 35.5752C151.94 35.2599 151.554 34.8482 151.257 34.3401C150.959 33.8321 150.81 33.1926 150.81 32.4218C150.81 31.5459 151.055 30.8013 151.546 30.1881C152.036 29.575 152.667 29.102 153.438 28.7691C154.226 28.4362 155.05 28.2698 155.908 28.2698C156.451 28.2698 157.021 28.3399 157.616 28.48C158.212 28.6027 158.781 28.8129 159.324 29.1107C159.867 29.391 160.323 29.7677 160.691 30.2407C160.883 30.5035 160.997 30.8188 161.032 31.1867C161.067 31.5546 160.901 31.8875 160.533 32.1853C160.27 32.3955 159.964 32.4919 159.613 32.4744C159.263 32.4393 158.974 32.3167 158.746 32.1065C158.448 31.7211 158.045 31.4145 157.537 31.1867C157.047 30.959 156.477 30.8451 155.829 30.8451C155.566 30.8451 155.277 30.8801 154.962 30.9502C154.664 31.0028 154.401 31.1342 154.174 31.3444C153.946 31.5371 153.832 31.8524 153.832 32.2904C153.832 32.6934 153.963 33.0175 154.226 33.2627C154.489 33.4905 154.839 33.6832 155.277 33.8409C155.733 33.981 156.215 34.1212 156.723 34.2613C157.248 34.4015 157.783 34.5679 158.326 34.7606C158.869 34.9533 159.368 35.2073 159.824 35.5227C160.279 35.838 160.647 36.2497 160.927 36.7578C161.208 37.2483 161.348 37.879 161.348 38.6498C161.348 39.5433 161.085 40.3054 160.559 40.936C160.034 41.5667 159.377 42.0485 158.588 42.3814C157.8 42.6967 156.994 42.8544 156.171 42.8544C155.137 42.8544 154.104 42.6792 153.07 42.3288C152.036 41.9609 151.178 41.3215 150.495 40.4105Z" fill="black"/>
</svg>
