<svg width="188" height="66" viewBox="0 0 188 66" fill="none" xmlns="http://www.w3.org/2000/svg">
<rect x="0.5" y="0.5" width="187" height="65" rx="10.5" fill="white" stroke="#E8E8E8"/>
<path d="M44.5771 37.3274C50.1755 34.1865 57.2586 36.1313 60.4682 41.6905L55.638 44.4792C50.014 47.7262 42.8212 45.7587 39.6329 40.1013L44.5771 37.3274Z" fill="black"/>
<path d="M42.5292 35.1256C45.7273 29.5863 52.8103 27.6884 58.3496 30.8865L55.4543 35.9014C52.2562 41.4406 45.1731 43.3385 39.6338 40.1404L42.5292 35.1256Z" fill="black" fill-opacity="0.8"/>
<path d="M39.382 34.5895C39.382 27.8714 44.828 22.4254 51.5461 22.4254V28.102C51.5461 34.82 46.1 40.2661 39.382 40.2661V34.5895Z" fill="black" fill-opacity="0.8"/>
<path d="M36.5145 34.8204C33.3163 29.2812 35.2142 22.1981 40.7535 19L43.6489 24.0149C46.847 29.5542 44.9491 36.6372 39.4098 39.8353L36.5145 34.8204Z" fill="black" fill-opacity="0.8"/>
<path d="M39.383 33.7786C39.383 27.5084 34.3 22.4254 28.0298 22.4254V28.9129C28.0298 35.1831 33.1128 40.2661 39.383 40.2661V33.7786Z" fill="black" fill-opacity="0.8"/>
<path d="M36.94 35.1256C33.7419 29.5863 26.6588 27.6884 21.1195 30.8865L24.0148 35.9014C27.213 41.4406 34.296 43.3385 39.8353 40.1404L36.94 35.1256Z" fill="black" fill-opacity="0.8"/>
<path d="M34.8911 37.3275C29.2928 34.1867 22.2096 36.1315 19 41.6906L23.8302 44.4793C29.4542 47.7264 36.647 45.7589 39.8353 40.1014L34.8911 37.3275Z" fill="black"/>
<path d="M81.1092 26.7904V39.3625H78.5876V31.1853L75.2195 39.3625H73.3102L69.9241 31.1853V39.3625H67.4024V26.7904H70.2663L74.2648 36.1384L78.2634 26.7904H81.1092Z" fill="black"/>
<path d="M84.1606 28.1953C83.7164 28.1953 83.3441 28.0573 83.0439 27.7811C82.7557 27.4929 82.6117 27.1387 82.6117 26.7184C82.6117 26.2981 82.7557 25.9499 83.0439 25.6737C83.3441 25.3855 83.7164 25.2415 84.1606 25.2415C84.6049 25.2415 84.9712 25.3855 85.2594 25.6737C85.5595 25.9499 85.7096 26.2981 85.7096 26.7184C85.7096 27.1387 85.5595 27.4929 85.2594 27.7811C84.9712 28.0573 84.6049 28.1953 84.1606 28.1953ZM85.4034 29.3841V39.3625H82.8818V29.3841H85.4034Z" fill="black"/>
<path d="M92.7039 29.24C93.8927 29.24 94.8533 29.6183 95.5857 30.3747C96.3182 31.1192 96.6845 32.1639 96.6845 33.5088V39.3625H94.1628V33.851C94.1628 33.0585 93.9647 32.4521 93.5685 32.0318C93.1722 31.5995 92.6318 31.3834 91.9474 31.3834C91.251 31.3834 90.6986 31.5995 90.2903 32.0318C89.8941 32.4521 89.696 33.0585 89.696 33.851V39.3625H87.1743V29.3841H89.696V30.6269C90.0322 30.1946 90.4585 29.8584 90.9748 29.6183C91.5031 29.3661 92.0795 29.24 92.7039 29.24Z" fill="black"/>
<path d="M97.7135 34.3373C97.7135 33.3286 97.9116 32.4341 98.3079 31.6536C98.7161 30.8731 99.2685 30.2727 99.9649 29.8524C100.661 29.4321 101.436 29.222 102.288 29.222C102.937 29.222 103.555 29.3661 104.144 29.6543C104.732 29.9305 105.2 30.3027 105.549 30.771V26.034H108.106V39.3625H105.549V37.8856C105.236 38.3779 104.798 38.7741 104.234 39.0743C103.669 39.3745 103.015 39.5246 102.27 39.5246C101.43 39.5246 100.661 39.3085 99.9649 38.8762C99.2685 38.4439 98.7161 37.8375 98.3079 37.057C97.9116 36.2645 97.7135 35.3579 97.7135 34.3373ZM105.567 34.3733C105.567 33.7609 105.446 33.2386 105.206 32.8063C104.966 32.362 104.642 32.0258 104.234 31.7977C103.825 31.5575 103.387 31.4374 102.919 31.4374C102.451 31.4374 102.018 31.5515 101.622 31.7796C101.226 32.0078 100.902 32.344 100.649 32.7883C100.409 33.2206 100.289 33.7369 100.289 34.3373C100.289 34.9377 100.409 35.466 100.649 35.9223C100.902 36.3666 101.226 36.7088 101.622 36.949C102.03 37.1891 102.463 37.3092 102.919 37.3092C103.387 37.3092 103.825 37.1951 104.234 36.967C104.642 36.7268 104.966 36.3906 105.206 35.9583C105.446 35.514 105.567 34.9857 105.567 34.3733Z" fill="black"/>
<path d="M114.423 31.4554H112.676V39.3625H110.119V31.4554H108.984V29.3841H110.119V28.8798C110.119 27.655 110.467 26.7544 111.163 26.1781C111.86 25.6017 112.91 25.3315 114.315 25.3675V27.4929C113.703 27.4809 113.277 27.583 113.037 27.7991C112.796 28.0152 112.676 28.4055 112.676 28.9698V29.3841H114.423V31.4554Z" fill="black"/>
<path d="M124.757 29.3841V39.3625H122.218V38.1017C121.893 38.534 121.467 38.8762 120.939 39.1284C120.422 39.3685 119.858 39.4886 119.246 39.4886C118.465 39.4886 117.775 39.3265 117.174 39.0023C116.574 38.6661 116.1 38.1797 115.751 37.5433C115.415 36.8949 115.247 36.1264 115.247 35.2379V29.3841H117.769V34.8776C117.769 35.6701 117.967 36.2825 118.363 36.7148C118.759 37.1351 119.3 37.3452 119.984 37.3452C120.681 37.3452 121.227 37.1351 121.623 36.7148C122.019 36.2825 122.218 35.6701 122.218 34.8776V29.3841H124.757Z" fill="black"/>
<path d="M129.046 26.034V39.3625H126.525V26.034H129.046Z" fill="black"/>
<path d="M136.347 29.24C137.536 29.24 138.496 29.6183 139.229 30.3747C139.961 31.1192 140.327 32.1639 140.327 33.5088V39.3625H137.806V33.851C137.806 33.0585 137.608 32.4521 137.211 32.0318C136.815 31.5995 136.275 31.3834 135.59 31.3834C134.894 31.3834 134.341 31.5995 133.933 32.0318C133.537 32.4521 133.339 33.0585 133.339 33.851V39.3625H130.817V29.3841H133.339V30.6269C133.675 30.1946 134.101 29.8584 134.618 29.6183C135.146 29.3661 135.722 29.24 136.347 29.24Z" fill="black"/>
<path d="M151.281 34.1572C151.281 34.5174 151.257 34.8416 151.209 35.1298H143.914C143.974 35.8503 144.226 36.4146 144.67 36.8229C145.115 37.2311 145.661 37.4353 146.31 37.4353C147.246 37.4353 147.913 37.033 148.309 36.2285H151.029C150.74 37.1891 150.188 37.9816 149.372 38.606C148.555 39.2184 147.552 39.5246 146.364 39.5246C145.403 39.5246 144.538 39.3145 143.77 38.8942C143.013 38.4619 142.419 37.8555 141.987 37.075C141.566 36.2945 141.356 35.394 141.356 34.3733C141.356 33.3406 141.566 32.4341 141.987 31.6536C142.407 30.8731 142.995 30.2727 143.752 29.8524C144.508 29.4321 145.379 29.222 146.364 29.222C147.312 29.222 148.159 29.4261 148.903 29.8344C149.66 30.2427 150.242 30.825 150.65 31.5815C151.071 32.326 151.281 33.1845 151.281 34.1572ZM148.669 33.4367C148.657 32.7883 148.423 32.272 147.967 31.8877C147.51 31.4915 146.952 31.2933 146.292 31.2933C145.667 31.2933 145.139 31.4855 144.707 31.8697C144.286 32.2419 144.028 32.7643 143.932 33.4367H148.669Z" fill="black"/>
<path d="M156.219 39.5246C155.403 39.5246 154.67 39.3805 154.022 39.0923C153.373 38.7921 152.857 38.3899 152.473 37.8856C152.101 37.3812 151.897 36.8229 151.86 36.2105H154.4C154.448 36.5947 154.634 36.9129 154.958 37.1651C155.295 37.4173 155.709 37.5433 156.201 37.5433C156.682 37.5433 157.054 37.4473 157.318 37.2552C157.594 37.063 157.732 36.8169 157.732 36.5167C157.732 36.1925 157.564 35.9523 157.228 35.7962C156.904 35.6281 156.381 35.448 155.661 35.2559C154.916 35.0758 154.304 34.8896 153.824 34.6975C153.355 34.5054 152.947 34.2112 152.599 33.8149C152.263 33.4187 152.095 32.8844 152.095 32.2119C152.095 31.6596 152.251 31.1552 152.563 30.699C152.887 30.2427 153.343 29.8824 153.932 29.6183C154.532 29.3541 155.235 29.222 156.039 29.222C157.228 29.222 158.177 29.5222 158.885 30.1226C159.593 30.711 159.984 31.5095 160.056 32.5181H157.642C157.606 32.1219 157.438 31.8097 157.138 31.5815C156.85 31.3414 156.459 31.2213 155.967 31.2213C155.511 31.2213 155.157 31.3053 154.904 31.4734C154.664 31.6416 154.544 31.8757 154.544 32.1759C154.544 32.5121 154.712 32.7703 155.049 32.9504C155.385 33.1185 155.907 33.2926 156.616 33.4727C157.336 33.6528 157.93 33.839 158.399 34.0311C158.867 34.2232 159.269 34.5234 159.605 34.9317C159.954 35.3279 160.134 35.8563 160.146 36.5167C160.146 37.0931 159.984 37.6094 159.659 38.0657C159.347 38.522 158.891 38.8822 158.291 39.1464C157.702 39.3985 157.012 39.5246 156.219 39.5246Z" fill="black"/>
<path d="M165.314 39.5246C164.497 39.5246 163.765 39.3805 163.116 39.0923C162.468 38.7921 161.952 38.3899 161.567 37.8856C161.195 37.3812 160.991 36.8229 160.955 36.2105H163.495C163.543 36.5947 163.729 36.9129 164.053 37.1651C164.389 37.4173 164.803 37.5433 165.296 37.5433C165.776 37.5433 166.148 37.4473 166.412 37.2552C166.689 37.063 166.827 36.8169 166.827 36.5167C166.827 36.1925 166.659 35.9523 166.322 35.7962C165.998 35.6281 165.476 35.448 164.755 35.2559C164.011 35.0758 163.398 34.8896 162.918 34.6975C162.45 34.5054 162.042 34.2112 161.693 33.8149C161.357 33.4187 161.189 32.8844 161.189 32.2119C161.189 31.6596 161.345 31.1552 161.657 30.699C161.982 30.2427 162.438 29.8824 163.026 29.6183C163.627 29.3541 164.329 29.222 165.134 29.222C166.322 29.222 167.271 29.5222 167.979 30.1226C168.688 30.711 169.078 31.5095 169.15 32.5181H166.737C166.701 32.1219 166.533 31.8097 166.232 31.5815C165.944 31.3414 165.554 31.2213 165.062 31.2213C164.605 31.2213 164.251 31.3053 163.999 31.4734C163.759 31.6416 163.639 31.8757 163.639 32.1759C163.639 32.5121 163.807 32.7703 164.143 32.9504C164.479 33.1185 165.002 33.2926 165.71 33.4727C166.43 33.6528 167.025 33.839 167.493 34.0311C167.961 34.2232 168.364 34.5234 168.7 34.9317C169.048 35.3279 169.228 35.8563 169.24 36.5167C169.24 37.0931 169.078 37.6094 168.754 38.0657C168.442 38.522 167.985 38.8822 167.385 39.1464C166.797 39.3985 166.106 39.5246 165.314 39.5246Z" fill="black"/>
</svg>
