<svg width="188" height="66" viewBox="0 0 188 66" fill="none" xmlns="http://www.w3.org/2000/svg">
<rect x="0.5" y="0.5" width="187" height="65" rx="10.5" fill="white" stroke="#E8E8E8"/>
<path d="M57.8007 46.0786H49.3148L57.8007 33.2462H66.2866L57.8007 46.0786Z" fill="black"/>
<path d="M54.6929 20H63.3858L54.6929 33.2463H46L54.6929 20Z" fill="black"/>
<path d="M83.5955 31.1634C83.5955 31.9504 83.4057 32.6881 83.0263 33.3767C82.661 34.0653 82.0778 34.6204 81.2768 35.0419C80.4898 35.4635 79.4921 35.6743 78.2836 35.6743H75.8173V41.3235H72.8663V26.6103H78.2836C79.4218 26.6103 80.3915 26.8071 81.1925 27.2006C81.9935 27.594 82.5907 28.1351 82.9842 28.8236C83.3917 29.5122 83.5955 30.2921 83.5955 31.1634ZM78.1571 33.2924C78.9721 33.2924 79.5764 33.1097 79.9699 32.7443C80.3634 32.3649 80.5601 31.8379 80.5601 31.1634C80.5601 29.73 79.7591 29.0133 78.1571 29.0133H75.8173V33.2924H78.1571Z" fill="black"/>
<path d="M87.7986 31.4585C88.178 30.8402 88.6698 30.3554 89.2741 30.0041C89.8924 29.6527 90.595 29.4771 91.382 29.4771V32.5757H90.6021C89.6746 32.5757 88.972 32.7935 88.4942 33.2291C88.0304 33.6648 87.7986 34.4236 87.7986 35.5057V41.3235H84.8475V29.6457H87.7986V31.4585Z" fill="black"/>
<path d="M97.7119 41.5132C96.5877 41.5132 95.5759 41.2673 94.6766 40.7754C93.7772 40.2695 93.0675 39.5599 92.5476 38.6464C92.0417 37.733 91.7887 36.6791 91.7887 35.4846C91.7887 34.2901 92.0487 33.2362 92.5687 32.3227C93.1027 31.4093 93.8264 30.7067 94.7398 30.2148C95.6532 29.709 96.672 29.456 97.7962 29.456C98.9205 29.456 99.9393 29.709 100.853 30.2148C101.766 30.7067 102.483 31.4093 103.003 32.3227C103.537 33.2362 103.804 34.2901 103.804 35.4846C103.804 36.6791 103.53 37.733 102.982 38.6464C102.448 39.5599 101.717 40.2695 100.789 40.7754C99.876 41.2673 98.8502 41.5132 97.7119 41.5132ZM97.7119 38.9416C98.2459 38.9416 98.7448 38.8151 99.2085 38.5621C99.6863 38.2951 100.066 37.9017 100.347 37.3817C100.628 36.8618 100.768 36.2294 100.768 35.4846C100.768 34.3744 100.473 33.5243 99.8831 32.934C99.3069 32.3298 98.5972 32.0276 97.7541 32.0276C96.9109 32.0276 96.2013 32.3298 95.6251 32.934C95.063 33.5243 94.782 34.3744 94.782 35.4846C94.782 36.5948 95.056 37.452 95.604 38.0562C96.1661 38.6464 96.8688 38.9416 97.7119 38.9416Z" fill="black"/>
<path d="M108.076 38.9837H111.245V41.3235H105.125V24.7975H108.076V38.9837Z" fill="black"/>
<path d="M113.535 28.2545C113.015 28.2545 112.579 28.0929 112.228 27.7697C111.89 27.4324 111.722 27.0179 111.722 26.526C111.722 26.0342 111.89 25.6267 112.228 25.3034C112.579 24.9662 113.015 24.7975 113.535 24.7975C114.055 24.7975 114.483 24.9662 114.82 25.3034C115.172 25.6267 115.347 26.0342 115.347 26.526C115.347 27.0179 115.172 27.4324 114.82 27.7697C114.483 28.0929 114.055 28.2545 113.535 28.2545ZM114.989 29.6457V41.3235H112.038V29.6457H114.989Z" fill="black"/>
<path d="M123.533 29.4771C124.924 29.4771 126.048 29.9197 126.905 30.8051C127.763 31.6763 128.191 32.8989 128.191 34.4728V41.3235H125.24V34.8733C125.24 33.9458 125.008 33.2362 124.545 32.7443C124.081 32.2384 123.449 31.9855 122.648 31.9855C121.832 31.9855 121.186 32.2384 120.708 32.7443C120.245 33.2362 120.013 33.9458 120.013 34.8733V41.3235H117.062V29.6457H120.013V31.1002C120.406 30.5943 120.905 30.2008 121.509 29.9197C122.128 29.6246 122.802 29.4771 123.533 29.4771Z" fill="black"/>
<path d="M141.01 35.2316C141.01 35.6532 140.982 36.0326 140.926 36.3699H132.389C132.459 37.2131 132.754 37.8735 133.274 38.3513C133.794 38.8291 134.433 39.068 135.192 39.068C136.288 39.068 137.068 38.5973 137.532 37.6557H140.715C140.378 38.7799 139.731 39.7074 138.776 40.4382C137.82 41.1548 136.647 41.5132 135.256 41.5132C134.131 41.5132 133.12 41.2673 132.22 40.7754C131.335 40.2695 130.639 39.5599 130.133 38.6464C129.641 37.733 129.396 36.6791 129.396 35.4846C129.396 34.2761 129.641 33.2151 130.133 32.3017C130.625 31.3882 131.314 30.6856 132.199 30.1938C133.084 29.7019 134.103 29.456 135.256 29.456C136.366 29.456 137.356 29.6949 138.228 30.1727C139.113 30.6505 139.795 31.332 140.272 32.2174C140.764 33.0886 141.01 34.0934 141.01 35.2316ZM137.954 34.3885C137.94 33.6296 137.666 33.0254 137.132 32.5757C136.598 32.112 135.944 31.8801 135.171 31.8801C134.44 31.8801 133.822 32.1049 133.316 32.5546C132.824 32.9902 132.522 33.6015 132.41 34.3885H137.954Z" fill="black"/>
</svg>
